<svg xmlns="http://www.w3.org/2000/svg" width="1200" height="800" viewBox="0 0 1200 800">
  <defs>
    <linearGradient id="g" x1="0" x2="1" y1="0" y2="1">
      <stop offset="0%" stop-color="#FF6B6B"/>
      <stop offset="100%" stop-color="#FF8E53"/>
    </linearGradient>
    <filter id="s" x="-20%" y="-20%" width="140%" height="140%">
      <feDropShadow dx="0" dy="8" stdDeviation="12" flood-color="#000" flood-opacity="0.25"/>
    </filter>
  </defs>
  <rect width="100%" height="100%" fill="url(#g)"/>
  <!-- Headphones icon style illustration -->
  <g filter="url(#s)">
    <rect x="250" y="260" rx="40" ry="40" width="700" height="300" fill="#fff" opacity="0.1"/>
  </g>
  <g transform="translate(300,200)">
    <path d="M300,350 a200,200 0 1,1 300,0 v100 a60,60 0 0,1 -60,60 h-60 v-180 h120 v-20 a180,180 0 1,0 -360,0 v20 h120 v180 h-60 a60,60 0 0,1 -60,-60z" fill="#ffffff" opacity="0.95"/>
    <rect x="240" y="350" width="120" height="180" rx="25" fill="#ffffff"/>
    <rect x="540" y="350" width="120" height="180" rx="25" fill="#ffffff"/>
  </g>
  <text x="50%" y="90%" dominant-baseline="middle" text-anchor="middle" font-family="Segoe UI, Arial, sans-serif" font-size="64" fill="#ffffff" opacity="0.95">Premium Headphones</text>
</svg>
